<mxfile host="app.diagrams.net" modified="2023-05-23T10:18:57.446Z" agent="Mozilla/5.0 (Windows NT 10.0; Win64; x64) AppleWebKit/537.36 (KHTML, like Gecko) Chrome/113.0.0.0 Safari/537.36" version="21.3.2" etag="BEhzXjoaiZHhtI44YzTX" type="github">
  <diagram name="Pagina-1" id="x6VUwGVM0xf4rsdWCT_l">
    <mxGraphModel>
      <root>
        <mxCell id="0" />
        <mxCell id="1" parent="0" />
      </root>
    </mxGraphModel>
  </diagram>
</mxfile>
